ply
format ascii 1.0
comment : MagicaVoxel @ Ephtracy
element vertex 54
property float x
property float y
property float z
property uchar red
property uchar green
property uchar blue
end_header
-1 -1 -1 221 0 0
0 -1 1 221 0 0
0 0 1 221 0 0
2 -2 1 221 0 0
2 -2 -1 221 0 0
-1 -1 0 221 0 0
0 0 -1 221 0 0
1 -2 1 221 0 0
2 -1 -1 221 0 0
1 1 0 221 0 0
0 -2 1 221 0 0
1 -1 1 221 0 0
2 1 0 221 0 0
-1 -2 0 221 0 0
-1 0 0 221 0 0
2 0 0 221 0 0
2 0 -1 221 0 0
0 1 -1 221 0 0
0 1 0 221 0 0
1 -2 -1 221 0 0
0 1 1 221 0 0
0 -1 0 221 0 0
1 0 0 221 0 0
0 -2 0 221 0 0
2 -1 1 221 0 0
1 0 1 221 0 0
1 1 1 221 0 0
1 -1 0 221 0 0
0 -2 -1 221 0 0
0 0 0 221 0 0
3 0 0 221 0 0
2 1 1 221 0 0
3 -1 0 221 0 0
1 -2 0 221 0 0
-1 1 0 221 0 0
2 -1 0 221 0 0
-1 0 -1 221 0 0
2 0 1 221 0 0
0 0 -2 221 0 0
2 -2 0 221 0 0
0 -1 -2 221 0 0
1 -1 -2 221 0 0
1 0 -2 221 0 0
1 1 -1 221 0 0
1 0 -1 221 0 0
1 -1 -1 221 0 0
0 -1 -1 221 0 0
1 -2 3 0 119 0
1 0 2 221 0 0
1 -2 2 0 119 0
0 -1 2 221 0 0
1 -3 2 0 119 0
0 0 2 221 0 0
1 -1 2 221 0 0
