ply
format ascii 1.0
comment : MagicaVoxel @ Ephtracy
element vertex 56
property float x
property float y
property float z
property uchar red
property uchar green
property uchar blue
end_header
-5 0 3 255 204 0
-5 1 3 255 204 0
-5 2 3 255 204 0
-5 0 2 255 204 0
-5 1 2 255 204 0
-5 2 2 255 204 0
-5 0 1 255 204 0
-5 1 1 255 204 0
-5 2 1 255 204 0
-4 0 3 255 204 0
-4 1 3 255 204 0
-4 2 3 255 204 0
-4 0 2 255 204 0
-4 1 2 255 204 0
-4 2 2 255 204 0
-4 0 1 255 204 0
-4 1 1 255 204 0
-4 2 1 255 204 0
-3 0 3 255 204 0
-3 1 3 255 204 0
-3 2 3 255 204 0
-3 0 2 255 204 0
-3 1 2 255 204 0
-3 2 2 255 204 0
-3 0 1 255 204 0
-3 1 1 255 204 0
-3 2 1 255 204 0
-2 0 3 119 119 119
-2 1 3 119 119 119
-2 2 3 119 119 119
-2 0 2 119 119 119
-2 1 2 255 204 0
-2 2 2 119 119 119
-2 0 1 119 119 119
-2 1 1 119 119 119
-2 2 1 119 119 119
-1 0 3 255 204 0
-1 1 3 255 204 0
-1 2 3 255 204 0
-1 0 2 255 204 0
-1 1 2 255 204 0
-1 2 2 255 204 0
-1 0 1 255 204 0
-1 1 1 255 204 0
-1 2 1 255 204 0
0 1 2 255 204 0
0 0 2 255 204 0
0 2 2 255 204 0
0 1 1 255 204 0
0 1 3 255 204 0
1 1 2 255 204 0
-6 1 3 255 204 0
-6 0 2 255 204 0
-6 1 2 255 204 0
-6 1 1 255 204 0
-6 2 2 255 204 0
