ply
format ascii 1.0
comment : MagicaVoxel @ Ephtracy
element vertex 398
property float x
property float y
property float z
property uchar red
property uchar green
property uchar blue
end_header
0 10 20 221 221 221
8 11 18 255 153 0
7 11 18 255 153 0
12 12 22 119 119 119
11 7 20 187 187 187
7 10 16 0 153 51
7 13 19 119 119 119
6 10 19 119 119 119
5 10 13 255 204 153
7 8 19 255 153 0
7 10 20 136 136 136
1 10 17 85 85 85
7 9 21 136 136 136
7 8 17 255 153 0
7 11 13 51 204 51
6 10 22 119 119 119
7 9 19 204 153 51
9 13 21 119 119 119
12 11 22 119 119 119
13 11 22 136 136 136
8 10 10 153 102 51
9 12 16 255 153 0
6 10 14 51 153 102
12 10 22 136 136 136
8 12 13 51 204 51
7 12 17 255 153 0
9 9 17 255 153 102
7 8 22 119 119 119
13 10 22 136 136 136
4 10 18 204 153 102
4 10 15 153 102 51
7 10 13 0 153 51
12 9 22 136 136 136
9 12 22 119 119 119
16 12 14 255 153 0
9 11 23 136 136 136
13 9 22 136 136 136
8 7 21 170 170 170
0 10 17 170 170 170
8 11 14 51 204 51
9 10 13 0 153 51
3 10 19 85 85 85
10 8 22 136 136 136
11 8 22 136 136 136
6 9 20 119 119 119
12 8 22 136 136 136
8 8 22 136 136 136
6 8 20 119 119 119
8 13 21 119 119 119
4 10 20 204 153 102
9 9 13 0 153 51
8 10 18 255 153 0
9 10 19 255 153 0
6 8 19 119 119 119
8 14 19 119 119 119
8 7 20 170 170 170
7 11 17 255 153 0
2 10 15 170 170 170
8 10 14 0 153 51
16 10 16 255 153 0
9 9 15 0 153 51
6 8 21 119 119 119
9 7 20 170 170 170
14 10 23 136 136 136
10 7 20 187 187 187
12 7 20 187 187 187
8 10 19 255 153 0
4 10 19 85 85 85
14 10 24 170 170 170
12 13 21 119 119 119
2 10 20 170 170 170
9 10 23 136 136 136
7 10 15 255 204 153
7 8 13 0 153 51
13 12 21 136 136 136
7 11 19 255 153 0
8 8 20 136 136 136
12 11 21 136 136 136
2 10 18 119 119 119
6 10 18 119 119 119
8 10 12 255 204 153
8 11 23 119 119 119
13 10 21 136 136 136
6 11 18 119 119 119
12 9 21 136 136 136
6 11 22 119 119 119
13 8 21 136 136 136
10 14 20 119 119 119
9 13 19 119 119 119
5 10 24 136 136 136
11 14 20 119 119 119
7 7 20 170 170 170
7 13 21 119 119 119
13 10 23 136 136 136
7 13 20 119 119 119
7 9 18 255 204 51
12 13 20 119 119 119
13 12 20 136 136 136
9 11 13 0 153 51
13 11 20 136 136 136
7 12 18 136 136 136
12 10 20 136 136 136
8 9 23 119 119 119
7 10 18 255 153 0
13 9 20 136 136 136
10 8 20 136 136 136
8 9 13 51 204 51
1 10 20 85 85 85
7 12 13 0 153 51
8 14 20 119 119 119
12 12 20 255 153 0
2 10 22 221 221 221
11 8 20 136 136 136
7 9 22 119 119 119
9 7 21 170 170 170
9 12 13 0 153 51
13 8 20 136 136 136
10 14 19 119 119 119
11 14 19 119 119 119
12 9 20 255 153 0
10 7 21 187 187 187
8 10 23 119 119 119
12 13 19 119 119 119
8 13 18 119 119 119
7 9 16 255 153 0
13 12 19 136 136 136
12 11 19 255 153 0
8 12 16 255 153 0
8 12 22 119 119 119
13 10 19 136 136 136
9 14 20 119 119 119
12 11 20 255 153 0
12 8 20 255 153 0
8 8 16 255 153 0
4 10 16 153 102 51
12 9 19 204 153 51
8 9 17 255 153 102
9 12 17 255 153 0
8 13 17 255 153 0
6 9 18 119 119 119
4 10 10 153 102 51
12 8 19 255 153 0
9 12 18 119 119 119
8 11 13 51 204 51
8 14 18 119 119 119
13 8 19 136 136 136
8 10 11 153 102 51
3 10 18 85 85 85
11 14 18 119 119 119
8 13 19 255 153 0
9 11 20 255 153 0
7 8 18 255 153 0
12 12 18 136 136 136
1 10 19 85 85 85
8 9 15 51 204 51
4 10 17 153 102 51
13 11 18 136 136 136
7 10 17 255 153 0
13 10 18 136 136 136
9 9 18 255 204 153
0 10 18 170 170 170
7 12 22 119 119 119
9 12 20 255 153 0
6 10 23 119 119 119
8 9 14 51 204 51
9 9 14 0 153 51
7 11 20 255 153 0
6 11 20 119 119 119
8 12 20 255 153 0
8 9 18 17 17 17
6 12 19 119 119 119
11 7 21 187 187 187
12 9 18 255 153 0
8 9 19 255 153 0
6 12 21 119 119 119
7 10 22 119 119 119
8 11 15 51 204 51
9 14 19 119 119 119
9 11 14 0 153 51
13 9 18 136 136 136
6 10 21 119 119 119
9 11 18 255 153 0
12 8 18 255 153 0
8 8 13 51 204 51
1 10 21 221 221 221
7 12 20 255 153 0
9 13 16 255 153 0
6 9 22 119 119 119
2 10 19 170 170 170
8 12 19 255 153 0
12 12 17 255 153 0
17 11 15 255 153 0
13 11 17 255 153 0
12 7 21 238 238 238
7 11 21 119 119 119
2 10 17 119 119 119
12 10 17 255 153 51
9 8 19 255 153 0
10 8 21 255 153 0
6 12 20 119 119 119
9 8 21 255 153 0
5 10 23 119 119 119
1 10 18 85 85 85
9 11 15 0 153 51
7 9 13 51 204 51
9 9 16 51 204 0
12 8 17 255 153 0
12 11 18 255 153 0
9 8 22 136 136 136
7 11 16 255 153 0
1 10 16 170 170 170
4 10 12 153 102 51
9 8 13 0 153 51
4 10 13 153 102 51
7 9 15 255 153 0
0 10 19 221 221 221
8 8 21 255 153 0
4 10 14 153 102 51
9 9 23 136 136 136
4 10 11 153 102 51
7 11 22 119 119 119
15 13 13 255 153 0
12 13 16 255 153 0
7 7 21 170 170 170
7 8 21 255 153 0
8 9 20 255 153 0
8 11 22 255 153 0
9 11 22 255 153 0
8 11 20 255 153 0
12 8 13 51 204 51
11 8 13 0 153 51
10 8 13 51 204 51
12 9 13 0 153 51
8 12 18 255 153 0
8 10 22 255 153 0
13 10 13 255 204 153
12 10 13 51 204 51
12 12 16 255 153 0
9 9 19 255 153 0
12 11 13 0 153 51
12 10 19 255 153 0
8 9 22 255 153 0
12 12 13 51 204 51
9 9 22 255 153 0
8 10 20 255 153 0
13 13 13 255 153 0
9 10 20 255 153 0
7 12 21 255 153 0
14 10 14 255 204 153
8 12 21 255 153 0
14 12 16 255 153 0
7 10 19 255 153 0
9 8 20 255 153 0
14 13 14 255 153 0
12 13 14 255 153 0
12 9 15 255 153 0
12 12 21 255 153 0
8 11 21 255 153 0
13 10 15 255 204 153
9 11 21 255 153 0
12 11 16 255 153 0
9 11 19 255 153 0
7 10 21 255 153 0
8 10 21 255 153 0
13 13 15 255 153 0
9 10 21 255 153 0
11 8 16 255 153 0
12 9 16 255 153 0
12 10 16 0 153 51
12 12 19 255 153 0
9 10 22 255 153 0
8 10 13 255 153 0
9 12 21 255 153 0
9 10 14 255 153 0
7 8 20 255 153 0
9 10 15 255 153 0
8 10 15 255 153 0
8 11 19 255 153 0
8 9 16 255 153 0
12 10 21 255 153 0
8 9 21 255 153 0
9 10 16 255 153 0
8 10 16 255 153 0
9 9 21 255 153 0
7 9 20 255 153 0
9 11 16 255 153 0
8 11 16 255 153 0
11 8 21 255 153 0
12 8 21 255 153 0
9 10 17 255 153 0
8 10 17 255 153 0
12 11 17 255 153 0
8 13 20 255 153 0
9 13 20 255 153 0
9 11 17 255 153 0
8 11 17 255 153 0
9 12 19 255 153 0
8 12 17 255 153 0
12 10 18 255 153 0
7 12 19 255 153 0
9 9 20 255 153 0
9 10 18 255 153 0
11 10 10 153 102 51
11 10 11 153 102 51
11 10 12 255 204 153
11 9 13 0 153 51
10 9 13 51 204 51
11 10 13 255 153 0
10 10 13 51 204 51
11 11 13 0 153 51
10 11 13 51 204 51
11 12 13 0 153 51
10 12 13 51 204 51
11 9 14 0 153 51
10 9 14 51 204 51
11 10 14 51 204 51
10 10 14 255 153 0
11 11 14 0 153 51
10 11 14 51 204 51
11 9 15 51 204 51
10 9 15 51 204 51
11 10 15 51 153 102
10 10 15 255 153 0
11 11 15 51 153 102
10 11 15 51 204 51
11 12 15 102 153 51
11 13 15 255 153 0
11 9 16 255 153 0
10 9 16 51 204 51
11 10 16 255 153 0
10 10 16 255 153 0
11 11 16 255 153 0
10 11 16 255 153 0
11 12 16 255 153 51
10 12 16 255 153 0
10 13 16 255 153 0
11 9 17 255 204 153
10 9 17 255 204 153
11 10 17 255 153 0
10 10 17 255 153 0
11 11 17 255 153 0
10 11 17 255 153 0
11 12 17 255 153 0
10 12 17 255 153 0
11 13 17 255 153 0
11 9 18 17 17 17
10 9 18 255 204 153
11 10 18 255 153 0
10 10 18 255 153 0
11 11 18 255 153 0
10 11 18 255 153 0
11 12 18 255 153 0
10 12 18 119 119 119
11 13 18 119 119 119
11 9 19 255 153 0
10 9 19 255 153 0
11 10 19 255 153 0
10 10 19 255 153 0
11 11 19 255 153 0
10 11 19 255 153 0
11 12 19 255 153 0
10 12 19 255 153 0
11 13 19 255 153 0
10 13 19 119 119 119
11 9 20 255 153 0
10 9 20 255 153 0
11 10 20 255 153 0
10 10 20 255 153 0
11 11 20 255 153 0
10 11 20 255 153 0
11 12 20 255 153 0
10 12 20 255 153 0
11 13 20 255 153 0
10 13 20 255 153 0
11 9 21 255 153 0
10 9 21 255 153 0
11 10 21 255 153 0
10 10 21 255 153 0
11 11 21 255 153 0
10 11 21 255 153 0
11 12 21 255 153 0
10 12 21 255 153 0
11 13 21 119 119 119
10 13 21 119 119 119
11 9 22 255 153 0
10 9 22 255 153 0
11 10 22 255 153 0
10 10 22 255 153 0
11 11 22 255 153 0
10 11 22 255 153 0
11 12 22 119 119 119
10 12 22 119 119 119
11 9 23 136 136 136
10 9 23 136 136 136
11 10 23 136 136 136
10 10 23 136 136 136
11 11 23 136 136 136
10 11 23 136 136 136
