ply
format ascii 1.0
comment : MagicaVoxel @ Ephtracy
element vertex 334
property float x
property float y
property float z
property uchar red
property uchar green
property uchar blue
end_header
10 10 23 51 102 255
11 10 23 51 102 255
10 10 12 204 204 255
11 10 11 221 221 221
7 9 21 51 102 255
8 13 21 51 102 255
6 10 12 255 255 255
6 10 19 51 102 255
7 10 14 85 85 85
12 8 20 51 102 255
9 13 21 51 102 255
10 13 21 51 102 255
11 13 21 51 102 255
8 12 22 51 102 255
12 12 19 51 102 255
9 9 22 51 102 255
10 9 22 51 102 255
11 9 22 51 102 255
9 12 22 51 102 255
10 12 22 51 102 255
8 10 10 51 102 204
11 12 22 51 102 255
12 8 19 51 102 255
8 11 23 51 102 255
12 9 21 51 102 255
12 10 12 51 102 255
13 9 20 51 102 255
9 11 23 51 102 255
10 11 23 51 102 255
11 11 23 51 102 255
7 12 16 255 255 255
11 13 17 51 102 255
13 10 19 51 102 255
8 8 20 51 102 255
9 9 19 51 102 255
9 12 16 255 255 255
13 12 18 51 102 255
13 12 11 255 204 0
11 9 19 51 102 255
8 11 14 204 204 255
8 11 13 119 119 119
1 10 12 255 255 255
6 10 11 255 204 0
12 9 19 51 102 255
6 9 20 51 102 255
13 12 12 255 255 255
9 9 18 255 204 153
10 9 18 255 204 153
12 12 21 51 102 255
4 10 12 255 255 255
13 12 13 255 204 0
13 11 12 255 204 0
11 9 18 17 17 17
13 13 18 51 102 255
12 12 20 51 102 255
13 10 21 51 102 255
10 13 17 51 102 255
13 10 18 255 153 102
3 10 12 255 255 255
13 11 14 255 204 0
12 9 18 51 102 255
13 11 13 255 255 255
9 9 17 255 153 102
7 9 19 51 102 255
12 11 18 51 102 255
13 11 10 255 204 0
13 11 11 255 255 255
13 8 13 255 204 0
7 12 18 51 102 255
13 8 12 255 255 255
10 12 16 255 255 255
9 10 23 51 102 255
10 9 17 255 204 153
13 8 21 51 102 255
11 9 17 255 204 153
12 9 16 255 255 255
12 10 13 255 255 255
9 9 15 51 102 204
12 10 17 51 102 255
8 13 20 51 102 255
2 10 12 255 255 255
6 12 18 51 102 255
13 10 14 255 255 255
6 10 13 255 204 0
13 10 13 255 204 0
13 10 12 255 204 0
10 9 15 51 102 255
11 7 20 51 102 255
8 7 20 51 102 255
11 11 14 204 204 255
14 10 20 51 102 255
6 10 21 51 102 255
11 11 13 119 119 119
11 9 15 51 102 255
13 10 10 255 255 255
7 9 18 51 102 255
11 13 20 51 102 255
8 13 19 51 102 255
11 13 19 51 102 255
9 13 17 51 102 255
8 13 18 51 102 255
13 12 19 51 102 255
12 12 18 51 102 255
11 13 18 51 102 255
9 14 18 51 102 255
9 7 20 51 102 255
12 11 16 255 255 255
7 11 21 51 102 255
9 9 14 204 204 255
13 10 11 255 204 0
7 12 21 51 102 255
12 10 14 136 136 136
10 7 20 51 102 255
10 11 15 51 102 255
7 12 17 51 102 255
8 9 13 85 85 85
9 14 20 51 102 255
11 8 20 51 102 255
10 14 18 51 102 255
10 9 14 204 204 255
12 11 17 51 102 255
7 11 17 51 102 255
10 8 19 51 102 255
8 13 17 51 102 255
12 12 16 255 255 255
11 11 12 204 204 255
9 10 12 204 204 255
6 12 19 51 102 255
8 9 12 204 204 255
13 11 20 51 102 255
11 9 14 255 255 255
13 9 14 255 204 0
11 12 16 255 255 255
11 10 10 51 102 204
9 9 13 85 85 85
10 9 13 255 255 255
8 9 17 255 153 102
7 10 12 51 102 204
10 8 21 51 102 255
12 10 15 255 204 102
8 11 12 204 204 255
9 8 21 51 102 255
9 11 12 204 204 255
13 11 19 51 102 255
6 13 18 51 102 255
8 10 23 51 102 255
8 10 11 221 221 221
6 11 19 51 102 255
12 12 17 51 102 255
8 8 21 51 102 255
10 11 12 204 204 255
8 12 16 255 255 255
7 8 20 51 102 255
11 9 13 119 119 119
8 9 15 51 102 204
11 8 16 255 255 255
12 8 16 255 255 255
7 10 17 51 102 255
7 8 16 255 255 255
13 9 13 255 255 255
7 10 13 255 255 255
8 8 16 255 255 255
13 11 21 51 102 255
10 11 14 204 204 255
8 9 14 204 204 255
9 9 12 204 204 255
10 9 12 255 255 255
6 10 18 255 153 102
12 11 22 51 102 255
8 9 18 17 17 17
11 9 12 204 204 255
11 11 15 51 102 255
7 11 15 255 255 255
8 9 19 51 102 255
11 8 21 51 102 255
7 10 22 51 102 255
8 11 15 51 102 255
5 10 20 51 102 255
9 11 14 204 204 255
13 9 12 255 204 0
7 9 16 255 255 255
9 8 20 51 102 255
7 10 16 255 255 255
13 9 11 255 255 255
13 8 11 255 204 0
12 10 16 255 255 255
7 11 16 255 255 255
7 11 22 51 102 255
5 10 12 255 204 0
10 11 13 119 119 119
7 12 20 51 102 255
12 11 15 255 255 255
10 8 16 255 204 102
10 14 20 51 102 255
7 8 19 51 102 255
8 9 22 51 102 255
7 12 19 51 102 255
7 10 15 255 204 102
9 8 16 255 204 102
9 11 13 119 119 119
7 11 18 51 102 255
9 14 19 51 102 255
10 14 19 51 102 255
9 11 15 51 102 255
13 9 10 255 204 0
12 10 22 51 102 255
6 11 20 51 102 255
11 10 12 51 102 255
8 10 12 51 102 255
11 10 13 51 102 255
10 10 13 51 102 255
9 10 13 51 102 255
8 10 13 51 102 255
11 10 14 51 102 255
10 10 14 51 102 255
9 10 14 51 102 255
8 10 14 51 102 255
11 10 15 51 102 255
10 10 15 51 102 255
9 10 15 51 102 255
8 10 15 51 102 255
11 9 16 51 102 255
10 9 16 51 102 255
9 9 16 51 102 255
8 9 16 51 102 255
11 10 16 51 102 255
10 10 16 51 102 255
9 10 16 51 102 255
8 10 16 51 102 255
11 11 16 51 102 255
10 11 16 51 102 255
9 11 16 51 102 255
8 11 16 51 102 255
11 10 17 51 102 255
10 10 17 51 102 255
9 10 17 51 102 255
8 10 17 51 102 255
11 11 17 51 102 255
10 11 17 51 102 255
9 11 17 51 102 255
8 11 17 51 102 255
11 12 17 51 102 255
10 12 17 51 102 255
9 12 17 51 102 255
8 12 17 51 102 255
12 10 18 51 102 255
11 10 18 51 102 255
10 10 18 51 102 255
9 10 18 51 102 255
8 10 18 51 102 255
7 10 18 51 102 255
11 11 18 51 102 255
10 11 18 51 102 255
9 11 18 51 102 255
8 11 18 51 102 255
11 12 18 51 102 255
10 12 18 51 102 255
9 12 18 51 102 255
8 12 18 51 102 255
10 13 18 51 102 255
9 13 18 51 102 255
10 9 19 51 102 255
12 10 19 51 102 255
11 10 19 51 102 255
10 10 19 51 102 255
9 10 19 51 102 255
8 10 19 51 102 255
7 10 19 51 102 255
12 11 19 51 102 255
11 11 19 51 102 255
10 11 19 51 102 255
9 11 19 51 102 255
8 11 19 51 102 255
7 11 19 51 102 255
11 12 19 51 102 255
10 12 19 51 102 255
9 12 19 51 102 255
8 12 19 51 102 255
10 13 19 51 102 255
9 13 19 51 102 255
10 8 20 51 102 255
12 9 20 51 102 255
11 9 20 51 102 255
10 9 20 51 102 255
9 9 20 51 102 255
8 9 20 51 102 255
7 9 20 51 102 255
13 10 20 51 102 255
12 10 20 51 102 255
11 10 20 51 102 255
10 10 20 51 102 255
9 10 20 51 102 255
8 10 20 51 102 255
7 10 20 51 102 255
6 10 20 51 102 255
12 11 20 51 102 255
11 11 20 51 102 255
10 11 20 51 102 255
9 11 20 51 102 255
8 11 20 51 102 255
7 11 20 51 102 255
11 12 20 51 102 255
10 12 20 51 102 255
9 12 20 51 102 255
8 12 20 51 102 255
10 13 20 51 102 255
9 13 20 51 102 255
11 9 21 51 102 255
10 9 21 51 102 255
9 9 21 51 102 255
8 9 21 51 102 255
12 10 21 51 102 255
11 10 21 51 102 255
10 10 21 51 102 255
9 10 21 51 102 255
8 10 21 51 102 255
7 10 21 51 102 255
12 11 21 51 102 255
11 11 21 51 102 255
10 11 21 51 102 255
9 11 21 51 102 255
8 11 21 51 102 255
11 12 21 51 102 255
10 12 21 51 102 255
9 12 21 51 102 255
8 12 21 51 102 255
11 10 22 51 102 255
10 10 22 51 102 255
9 10 22 51 102 255
8 10 22 51 102 255
11 11 22 51 102 255
10 11 22 51 102 255
9 11 22 51 102 255
8 11 22 51 102 255
