ply
format ascii 1.0
comment : MagicaVoxel @ Ephtracy
element vertex 334
property float x
property float y
property float z
property uchar red
property uchar green
property uchar blue
end_header
0 0 13 51 102 255
1 0 13 51 102 255
0 0 2 204 204 255
1 0 1 221 221 221
-3 -1 11 51 102 255
-2 3 11 51 102 255
-4 0 2 255 255 255
-4 0 9 51 102 255
-3 0 4 85 85 85
2 -2 10 51 102 255
-1 3 11 51 102 255
0 3 11 51 102 255
1 3 11 51 102 255
-2 2 12 51 102 255
2 2 9 51 102 255
-1 -1 12 51 102 255
0 -1 12 51 102 255
1 -1 12 51 102 255
-1 2 12 51 102 255
0 2 12 51 102 255
-2 0 0 51 102 204
1 2 12 51 102 255
2 -2 9 51 102 255
-2 1 13 51 102 255
2 -1 11 51 102 255
2 0 2 51 102 255
3 -1 10 51 102 255
-1 1 13 51 102 255
0 1 13 51 102 255
1 1 13 51 102 255
-3 2 6 255 255 255
1 3 7 51 102 255
3 0 9 51 102 255
-2 -2 10 51 102 255
-1 -1 9 51 102 255
-1 2 6 255 255 255
3 2 8 51 102 255
3 2 1 255 204 0
1 -1 9 51 102 255
-2 1 4 204 204 255
-2 1 3 119 119 119
-9 0 2 255 255 255
-4 0 1 255 204 0
2 -1 9 51 102 255
-4 -1 10 51 102 255
3 2 2 255 255 255
-1 -1 8 255 204 153
0 -1 8 255 204 153
2 2 11 51 102 255
-6 0 2 255 255 255
3 2 3 255 204 0
3 1 2 255 204 0
1 -1 8 17 17 17
3 3 8 51 102 255
2 2 10 51 102 255
3 0 11 51 102 255
0 3 7 51 102 255
3 0 8 255 153 102
-7 0 2 255 255 255
3 1 4 255 204 0
2 -1 8 51 102 255
3 1 3 255 255 255
-1 -1 7 255 153 102
-3 -1 9 51 102 255
2 1 8 51 102 255
3 1 0 255 204 0
3 1 1 255 255 255
3 -2 3 255 204 0
-3 2 8 51 102 255
3 -2 2 255 255 255
0 2 6 255 255 255
-1 0 13 51 102 255
0 -1 7 255 204 153
3 -2 11 51 102 255
1 -1 7 255 204 153
2 -1 6 255 255 255
2 0 3 255 255 255
-1 -1 5 51 102 204
2 0 7 51 102 255
-2 3 10 51 102 255
-8 0 2 255 255 255
-4 2 8 51 102 255
3 0 4 255 255 255
-4 0 3 255 204 0
3 0 3 255 204 0
3 0 2 255 204 0
0 -1 5 51 102 255
1 -3 10 51 102 255
-2 -3 10 51 102 255
1 1 4 204 204 255
4 0 10 51 102 255
-4 0 11 51 102 255
1 1 3 119 119 119
1 -1 5 51 102 255
3 0 0 255 255 255
-3 -1 8 51 102 255
1 3 10 51 102 255
-2 3 9 51 102 255
1 3 9 51 102 255
-1 3 7 51 102 255
-2 3 8 51 102 255
3 2 9 51 102 255
2 2 8 51 102 255
1 3 8 51 102 255
-1 4 8 51 102 255
-1 -3 10 51 102 255
2 1 6 255 255 255
-3 1 11 51 102 255
-1 -1 4 204 204 255
3 0 1 255 204 0
-3 2 11 51 102 255
2 0 4 136 136 136
0 -3 10 51 102 255
0 1 5 51 102 255
-3 2 7 51 102 255
-2 -1 3 85 85 85
-1 4 10 51 102 255
1 -2 10 51 102 255
0 4 8 51 102 255
0 -1 4 204 204 255
2 1 7 51 102 255
-3 1 7 51 102 255
0 -2 9 51 102 255
-2 3 7 51 102 255
2 2 6 255 255 255
1 1 2 204 204 255
-1 0 2 204 204 255
-4 2 9 51 102 255
-2 -1 2 204 204 255
3 1 10 51 102 255
1 -1 4 255 255 255
3 -1 4 255 204 0
1 2 6 255 255 255
1 0 0 51 102 204
-1 -1 3 85 85 85
0 -1 3 255 255 255
-2 -1 7 255 153 102
-3 0 2 51 102 204
0 -2 11 51 102 255
2 0 5 255 204 102
-2 1 2 204 204 255
-1 -2 11 51 102 255
-1 1 2 204 204 255
3 1 9 51 102 255
-4 3 8 51 102 255
-2 0 13 51 102 255
-2 0 1 221 221 221
-4 1 9 51 102 255
2 2 7 51 102 255
-2 -2 11 51 102 255
0 1 2 204 204 255
-2 2 6 255 255 255
-3 -2 10 51 102 255
1 -1 3 119 119 119
-2 -1 5 51 102 204
1 -2 6 255 255 255
2 -2 6 255 255 255
-3 0 7 51 102 255
-3 -2 6 255 255 255
3 -1 3 255 255 255
-3 0 3 255 255 255
-2 -2 6 255 255 255
3 1 11 51 102 255
0 1 4 204 204 255
-2 -1 4 204 204 255
-1 -1 2 204 204 255
0 -1 2 255 255 255
-4 0 8 255 153 102
2 1 12 51 102 255
-2 -1 8 17 17 17
1 -1 2 204 204 255
1 1 5 51 102 255
-3 1 5 255 255 255
-2 -1 9 51 102 255
1 -2 11 51 102 255
-3 0 12 51 102 255
-2 1 5 51 102 255
-5 0 10 51 102 255
-1 1 4 204 204 255
3 -1 2 255 204 0
-3 -1 6 255 255 255
-1 -2 10 51 102 255
-3 0 6 255 255 255
3 -1 1 255 255 255
3 -2 1 255 204 0
2 0 6 255 255 255
-3 1 6 255 255 255
-3 1 12 51 102 255
-5 0 2 255 204 0
0 1 3 119 119 119
-3 2 10 51 102 255
2 1 5 255 255 255
0 -2 6 255 204 102
0 4 10 51 102 255
-3 -2 9 51 102 255
-2 -1 12 51 102 255
-3 2 9 51 102 255
-3 0 5 255 204 102
-1 -2 6 255 204 102
-1 1 3 119 119 119
-3 1 8 51 102 255
-1 4 9 51 102 255
0 4 9 51 102 255
-1 1 5 51 102 255
3 -1 0 255 204 0
2 0 12 51 102 255
-4 1 10 51 102 255
1 0 2 51 102 255
-2 0 2 51 102 255
1 0 3 51 102 255
0 0 3 51 102 255
-1 0 3 51 102 255
-2 0 3 51 102 255
1 0 4 51 102 255
0 0 4 51 102 255
-1 0 4 51 102 255
-2 0 4 51 102 255
1 0 5 51 102 255
0 0 5 51 102 255
-1 0 5 51 102 255
-2 0 5 51 102 255
1 -1 6 51 102 255
0 -1 6 51 102 255
-1 -1 6 51 102 255
-2 -1 6 51 102 255
1 0 6 51 102 255
0 0 6 51 102 255
-1 0 6 51 102 255
-2 0 6 51 102 255
1 1 6 51 102 255
0 1 6 51 102 255
-1 1 6 51 102 255
-2 1 6 51 102 255
1 0 7 51 102 255
0 0 7 51 102 255
-1 0 7 51 102 255
-2 0 7 51 102 255
1 1 7 51 102 255
0 1 7 51 102 255
-1 1 7 51 102 255
-2 1 7 51 102 255
1 2 7 51 102 255
0 2 7 51 102 255
-1 2 7 51 102 255
-2 2 7 51 102 255
2 0 8 51 102 255
1 0 8 51 102 255
0 0 8 51 102 255
-1 0 8 51 102 255
-2 0 8 51 102 255
-3 0 8 51 102 255
1 1 8 51 102 255
0 1 8 51 102 255
-1 1 8 51 102 255
-2 1 8 51 102 255
1 2 8 51 102 255
0 2 8 51 102 255
-1 2 8 51 102 255
-2 2 8 51 102 255
0 3 8 51 102 255
-1 3 8 51 102 255
0 -1 9 51 102 255
2 0 9 51 102 255
1 0 9 51 102 255
0 0 9 51 102 255
-1 0 9 51 102 255
-2 0 9 51 102 255
-3 0 9 51 102 255
2 1 9 51 102 255
1 1 9 51 102 255
0 1 9 51 102 255
-1 1 9 51 102 255
-2 1 9 51 102 255
-3 1 9 51 102 255
1 2 9 51 102 255
0 2 9 51 102 255
-1 2 9 51 102 255
-2 2 9 51 102 255
0 3 9 51 102 255
-1 3 9 51 102 255
0 -2 10 51 102 255
2 -1 10 51 102 255
1 -1 10 51 102 255
0 -1 10 51 102 255
-1 -1 10 51 102 255
-2 -1 10 51 102 255
-3 -1 10 51 102 255
3 0 10 51 102 255
2 0 10 51 102 255
1 0 10 51 102 255
0 0 10 51 102 255
-1 0 10 51 102 255
-2 0 10 51 102 255
-3 0 10 51 102 255
-4 0 10 51 102 255
2 1 10 51 102 255
1 1 10 51 102 255
0 1 10 51 102 255
-1 1 10 51 102 255
-2 1 10 51 102 255
-3 1 10 51 102 255
1 2 10 51 102 255
0 2 10 51 102 255
-1 2 10 51 102 255
-2 2 10 51 102 255
0 3 10 51 102 255
-1 3 10 51 102 255
1 -1 11 51 102 255
0 -1 11 51 102 255
-1 -1 11 51 102 255
-2 -1 11 51 102 255
2 0 11 51 102 255
1 0 11 51 102 255
0 0 11 51 102 255
-1 0 11 51 102 255
-2 0 11 51 102 255
-3 0 11 51 102 255
2 1 11 51 102 255
1 1 11 51 102 255
0 1 11 51 102 255
-1 1 11 51 102 255
-2 1 11 51 102 255
1 2 11 51 102 255
0 2 11 51 102 255
-1 2 11 51 102 255
-2 2 11 51 102 255
1 0 12 51 102 255
0 0 12 51 102 255
-1 0 12 51 102 255
-2 0 12 51 102 255
1 1 12 51 102 255
0 1 12 51 102 255
-1 1 12 51 102 255
-2 1 12 51 102 255
