ply
format ascii 1.0
comment : MagicaVoxel @ Ephtracy
element vertex 27
property float x
property float y
property float z
property uchar red
property uchar green
property uchar blue
end_header
6 -1 0 136 136 136
7 -1 0 136 136 136
1 2 0 136 136 136
3 -4 0 136 136 136
6 -2 0 136 136 136
-3 -1 0 136 136 136
1 1 0 136 136 136
0 -1 0 136 136 136
3 2 0 136 136 136
-1 -1 0 136 136 136
4 2 0 136 136 136
-2 -1 0 136 136 136
4 -4 0 136 136 136
2 2 0 136 136 136
0 -2 0 136 136 136
6 0 0 136 136 136
0 1 0 136 136 136
2 -4 0 136 136 136
1 -4 0 136 136 136
1 -3 0 136 136 136
0 -3 0 136 136 136
0 0 0 136 136 136
5 -1 0 136 136 136
4 -1 0 136 136 136
3 -1 0 136 136 136
1 -1 0 136 136 136
2 -1 0 136 136 136
