ply
format ascii 1.0
comment : MagicaVoxel @ Ephtracy
element vertex 24
property float x
property float y
property float z
property uchar red
property uchar green
property uchar blue
end_header
1 0 20 153 204 255
1 2 22 153 204 255
0 2 22 153 204 255
2 1 22 153 204 255
1 1 22 153 204 255
0 1 22 153 204 255
2 0 22 153 204 255
1 0 22 153 204 255
0 0 20 153 204 255
2 2 21 153 204 255
1 2 21 153 204 255
0 2 21 153 204 255
2 1 21 153 204 255
1 1 21 153 204 255
0 1 21 153 204 255
2 0 21 153 204 255
1 0 21 153 204 255
0 0 21 153 204 255
2 2 20 153 204 255
1 2 20 153 204 255
0 2 20 153 204 255
2 1 20 153 204 255
1 1 20 153 204 255
0 1 20 153 204 255
