ply
format ascii 1.0
comment : MagicaVoxel @ Ephtracy
element vertex 231
property float x
property float y
property float z
property uchar red
property uchar green
property uchar blue
end_header
1 0 13 153 102 51
1 1 13 153 102 51
0 1 10 51 102 255
0 2 10 51 102 255
2 -3 11 153 102 51
-1 -3 10 85 85 85
0 1 7 85 85 85
-1 -1 10 85 85 85
1 1 2 102 51 0
1 2 5 102 51 51
1 -2 7 51 102 255
1 -1 7 51 102 255
1 0 8 51 102 255
-1 -2 12 153 102 51
-1 2 9 85 85 85
2 -1 12 153 102 51
2 0 12 153 102 51
2 1 12 153 102 51
-1 -1 12 153 102 51
-1 0 12 153 102 51
1 -2 0 17 17 17
-1 1 12 153 102 51
1 1 0 17 17 17
0 -2 13 153 102 51
2 2 11 153 102 51
2 -1 8 255 204 153
0 1 3 102 51 0
0 -1 13 153 102 51
0 0 13 153 102 51
0 1 13 153 102 51
1 -2 11 153 102 51
0 0 9 51 102 255
1 0 7 51 102 255
1 1 1 221 221 221
0 -3 4 102 51 51
1 -1 11 153 102 51
0 1 8 51 102 255
1 -3 10 85 85 85
2 1 9 255 204 153
0 -2 4 102 51 0
0 -2 3 102 51 0
1 2 4 102 51 0
1 1 7 255 204 153
1 0 9 51 102 255
2 -1 9 255 204 153
1 -2 10 255 204 153
2 -3 5 102 51 0
2 0 8 255 204 153
-1 2 11 153 102 51
0 1 6 102 51 0
1 -2 6 102 51 0
1 -1 10 255 204 153
2 1 8 17 17 17
1 -1 8 51 102 255
-1 2 10 85 85 85
1 3 11 153 102 51
1 -1 6 51 102 255
1 0 6 51 102 255
2 1 11 153 102 51
1 1 6 102 51 0
1 1 9 51 102 255
2 -2 6 102 51 0
2 -1 7 255 204 153
2 -3 9 85 85 85
0 2 8 255 204 153
1 0 10 255 204 153
1 1 10 51 102 255
1 2 10 85 85 85
2 -1 6 255 204 102
2 0 6 255 204 102
1 0 11 153 102 51
1 -1 13 153 102 51
2 0 7 255 204 153
1 -4 11 153 102 51
2 1 7 255 204 153
2 1 6 102 51 0
2 -3 10 85 85 85
2 -1 5 255 204 102
-2 1 11 153 102 51
1 -2 5 102 51 0
2 -2 0 17 17 17
1 2 9 85 85 85
1 -1 5 51 102 255
1 0 5 51 102 255
2 -2 10 85 85 85
1 -2 12 153 102 51
2 0 5 255 204 102
0 0 2 221 221 221
2 -1 10 85 85 85
0 1 4 102 51 0
1 1 5 102 51 51
2 1 0 17 17 17
2 0 10 85 85 85
2 1 5 102 51 51
2 1 10 85 85 85
2 -3 8 255 204 153
1 1 8 51 102 255
1 -2 4 102 51 0
1 2 8 255 204 153
1 -1 4 51 102 255
1 0 4 51 102 255
1 -3 8 255 204 153
-1 -4 11 153 102 51
1 1 4 102 51 0
-1 -2 10 85 85 85
0 -1 12 153 102 51
0 1 11 153 102 51
1 -2 3 102 51 0
2 -1 4 102 51 51
2 0 9 255 204 153
1 -1 3 51 102 255
2 1 3 102 51 0
0 -2 12 153 102 51
1 -1 9 51 102 255
1 -2 9 51 102 255
2 -2 3 102 51 0
0 -2 10 51 102 255
0 1 2 102 51 0
0 0 11 153 102 51
2 0 4 102 51 51
-2 2 11 153 102 51
1 -2 2 102 51 0
1 1 12 153 102 51
1 -3 9 85 85 85
0 2 11 153 102 51
1 0 12 153 102 51
1 -1 2 204 204 255
0 -4 10 153 102 51
2 -2 2 102 51 0
0 3 10 85 85 85
2 1 4 102 51 51
-1 1 10 85 85 85
1 1 11 153 102 51
1 2 12 153 102 51
2 -1 3 102 51 51
0 2 9 255 204 153
2 -2 7 255 204 153
2 0 3 102 51 51
1 -1 12 153 102 51
2 1 2 102 51 0
0 -2 2 102 51 0
0 1 12 153 102 51
0 -1 2 221 221 221
1 -2 8 51 102 255
-1 0 11 153 102 51
1 -2 13 153 102 51
1 -2 1 221 221 221
0 -3 10 153 102 51
-2 -4 11 153 102 51
1 0 3 51 102 255
0 -1 3 221 221 221
1 2 11 153 102 51
1 -3 5 102 51 51
2 -2 12 153 102 51
2 -2 5 102 51 51
-1 1 11 153 102 51
0 0 3 221 221 221
1 -3 7 255 204 153
0 -1 11 153 102 51
2 0 2 102 51 51
1 0 2 204 204 255
0 1 9 51 102 255
0 3 11 153 102 51
0 0 4 221 221 221
2 -2 4 102 51 0
2 -1 2 102 51 51
-1 1 9 85 85 85
0 -1 9 51 102 255
0 2 12 153 102 51
2 -2 8 17 17 17
0 -3 12 153 102 51
0 1 5 102 51 0
2 0 11 153 102 51
2 -2 9 255 204 153
1 1 3 102 51 0
1 -3 12 153 102 51
1 -3 11 153 102 51
-1 1 8 85 85 85
0 -1 4 221 221 221
2 -1 11 153 102 51
2 -2 11 153 102 51
0 0 12 153 102 51
0 -3 5 102 51 51
0 -2 5 102 51 0
0 -1 5 221 221 221
0 0 5 221 221 221
0 -2 6 102 51 0
0 -1 6 221 221 221
0 0 6 221 221 221
3 -3 11 153 102 51
2 -4 11 153 102 51
-1 -1 11 153 102 51
-1 -2 7 85 85 85
0 -2 7 85 85 85
0 -2 11 153 102 51
-1 -1 7 85 85 85
0 -1 7 51 102 255
-1 -2 11 153 102 51
-1 0 9 85 85 85
0 0 7 85 85 85
3 -4 11 153 102 51
0 -4 11 153 102 51
0 -3 11 153 102 51
-1 -2 8 85 85 85
0 -2 8 85 85 85
-1 -3 11 153 102 51
-1 -1 8 85 85 85
0 -1 8 51 102 255
0 0 10 51 102 255
-1 0 8 85 85 85
0 0 8 51 102 255
-1 -3 9 85 85 85
0 -3 9 85 85 85
-1 0 10 85 85 85
-1 -2 9 85 85 85
0 -2 9 51 102 255
0 -1 10 51 102 255
-1 -1 9 85 85 85
3 -2 11 153 102 51
3 -1 11 153 102 51
3 0 11 153 102 51
3 1 11 153 102 51
3 2 11 153 102 51
2 3 11 153 102 51
3 3 11 153 102 51
-1 3 11 153 102 51
-2 3 11 153 102 51
-2 -3 11 153 102 51
-2 -2 11 153 102 51
-2 -1 11 153 102 51
-2 0 11 153 102 51
