ply
format ascii 1.0
comment : MagicaVoxel @ Ephtracy
element vertex 350
property float x
property float y
property float z
property uchar red
property uchar green
property uchar blue
end_header
1 0 13 255 204 153
1 1 13 255 204 153
0 1 10 51 102 255
0 2 10 51 102 255
2 -3 11 255 204 153
-2 -2 11 204 153 153
-1 0 10 255 102 255
1 -4 9 255 204 153
1 1 2 0 0 34
3 2 10 255 204 153
-2 -1 11 255 204 153
-2 0 11 204 153 153
-2 1 11 255 204 153
-1 -2 12 255 204 153
-1 2 9 204 153 153
2 -1 12 255 204 153
2 0 12 255 204 153
2 1 12 255 204 153
-1 -1 12 255 204 153
-1 0 12 255 204 153
1 -2 0 0 0 34
-1 1 12 255 204 153
3 2 9 255 204 153
0 -2 13 255 204 153
2 2 11 255 204 153
2 -1 8 255 204 204
2 3 10 255 204 153
0 -1 13 255 204 153
0 0 13 255 204 153
0 1 13 255 204 153
1 -2 11 255 204 153
-2 1 7 255 204 153
1 3 9 255 204 153
1 1 1 221 221 221
0 -3 4 0 0 34
1 -1 11 255 204 153
-1 3 8 255 204 153
1 -3 10 255 204 153
2 1 9 255 204 204
0 -2 4 0 0 34
0 -2 3 0 0 34
1 -2 18 0 119 0
-1 -2 10 255 102 255
2 2 9 255 204 153
2 -1 9 255 204 204
1 -2 10 255 204 153
2 -3 5 0 0 85
2 0 8 255 204 204
-1 2 11 204 153 153
-2 -1 10 255 204 153
0 -1 10 51 102 255
1 -1 10 255 204 153
2 1 8 17 17 17
-2 3 8 255 204 153
-1 2 10 204 153 153
1 3 11 204 153 153
-2 0 7 255 204 153
1 3 8 255 204 153
2 1 11 255 204 153
0 -2 10 51 102 255
2 2 8 255 204 153
0 0 10 51 102 255
2 -1 7 255 204 204
2 -3 9 255 204 153
0 2 8 255 204 153
1 0 10 255 204 153
1 1 10 51 102 255
1 2 10 255 102 255
-1 -3 8 255 204 153
1 3 10 255 102 255
1 0 11 255 204 153
1 -1 13 255 204 153
2 0 7 255 204 204
1 -4 11 204 153 153
2 1 7 255 204 204
0 0 11 51 102 255
2 -3 10 255 204 153
2 -1 5 238 238 238
1 2 7 255 204 153
-2 -2 10 255 204 153
1 -3 18 0 119 0
-1 -4 8 255 204 153
0 -3 10 51 102 255
-1 -1 10 255 102 255
2 -2 10 255 204 204
1 -2 12 255 204 153
2 0 5 238 238 238
0 0 2 221 221 221
2 -1 10 255 204 204
0 1 4 0 0 85
1 4 10 255 204 153
2 1 0 0 0 34
2 0 10 255 204 204
2 1 5 0 0 34
2 1 10 204 153 153
2 -3 8 255 204 153
-2 1 10 255 204 153
-2 -2 9 204 153 153
-2 1 9 255 204 153
-2 -1 7 255 204 153
-2 -2 8 255 204 153
-1 3 9 204 153 153
-1 2 8 255 204 153
-2 1 8 255 204 153
-3 -1 8 255 204 153
0 -1 12 51 102 255
0 1 11 255 102 255
0 -3 11 255 204 153
2 -1 4 238 238 238
2 2 10 255 102 255
-1 -3 11 255 204 153
2 1 3 0 0 34
0 -2 12 51 102 255
0 0 5 221 221 221
-1 -3 7 255 204 153
2 -2 3 0 0 34
-3 -1 10 204 153 153
0 1 2 0 0 34
-3 0 8 255 204 153
2 0 4 238 238 238
0 2 7 255 204 153
0 -3 7 255 204 153
1 1 12 255 102 255
-2 -2 7 255 204 153
0 2 11 255 102 255
1 0 12 255 204 153
1 -1 2 204 204 255
-1 -4 9 255 204 153
2 -2 2 0 0 34
0 3 10 204 153 153
2 1 4 0 0 34
-1 1 10 255 102 255
1 1 11 255 102 255
-2 -1 9 255 102 255
2 -1 3 221 221 221
-2 0 9 255 102 255
2 -2 7 255 204 204
2 0 3 255 255 255
1 -1 12 255 204 153
2 1 2 0 0 34
0 -2 2 0 0 34
0 1 12 255 102 255
0 -1 2 221 221 221
0 3 9 255 204 153
-2 -4 8 255 204 153
1 -2 13 255 204 153
1 -2 1 221 221 221
0 -4 9 255 204 153
-1 2 7 255 204 153
1 0 3 51 102 255
-1 -2 9 255 102 255
1 2 11 255 102 255
3 -3 10 255 204 153
-1 -1 9 255 102 255
2 -2 5 0 0 34
-1 1 11 255 102 255
0 -1 11 51 102 255
1 -3 7 255 204 153
-1 -2 11 255 102 255
-1 0 9 255 102 255
1 0 2 204 204 255
-1 -1 11 255 102 255
0 3 11 204 153 153
0 0 4 221 221 221
2 -2 4 0 0 85
2 -1 2 221 221 221
-1 1 9 255 102 255
1 -4 8 255 204 204
0 2 12 255 204 153
2 -2 8 17 17 17
0 -3 9 51 102 255
0 1 5 0 0 34
0 -3 5 0 0 34
2 -2 9 255 204 204
1 1 3 0 0 34
1 -3 12 204 153 153
0 -2 5 0 0 34
1 -5 10 255 204 153
0 -1 4 221 221 221
0 -2 9 51 102 255
2 -2 11 255 204 153
0 0 12 51 102 255
2 -1 11 255 204 204
0 -1 9 51 102 255
0 0 9 51 102 255
1 -3 11 255 204 153
2 0 11 204 153 153
0 -3 12 204 153 153
-2 0 10 255 204 153
0 1 9 51 102 255
-1 -3 10 255 204 153
2 0 2 255 255 255
0 -2 11 51 102 255
-3 0 10 204 153 153
0 0 3 221 221 221
2 -2 12 255 204 153
-1 -3 9 255 204 153
1 -3 5 0 0 34
-1 0 11 255 102 255
0 -1 3 221 221 221
0 -3 8 255 204 153
-3 -1 9 255 204 153
-3 0 9 255 204 153
0 -1 5 221 221 221
0 2 9 51 102 255
1 2 12 255 204 153
0 -4 10 255 204 153
1 -3 9 51 102 255
1 -2 2 0 0 34
1 -2 9 51 102 255
1 -1 9 51 102 255
1 -1 3 51 102 255
1 -2 3 0 0 34
1 1 4 0 0 34
1 0 4 51 102 255
1 -1 4 51 102 255
1 -2 4 0 0 34
1 1 5 0 0 34
1 0 5 51 102 255
1 -1 5 51 102 255
1 -2 5 0 0 34
2 1 6 0 0 85
2 0 6 238 238 238
2 -1 6 238 238 238
2 -2 6 0 0 85
1 1 6 0 0 34
1 0 6 51 102 255
1 -1 6 51 102 255
1 -2 6 0 0 34
0 1 6 0 0 34
0 0 6 221 221 221
0 -1 6 221 221 221
0 -2 6 0 0 34
1 1 7 51 102 255
1 0 7 51 102 255
1 -1 7 51 102 255
1 -2 7 51 102 255
0 1 7 51 102 255
0 0 7 51 102 255
0 -1 7 51 102 255
0 -2 7 51 102 255
-1 1 7 255 102 255
-1 0 7 255 102 255
-1 -1 7 51 102 255
-1 -2 7 51 102 255
1 2 8 51 102 255
1 1 8 51 102 255
1 0 8 51 102 255
1 -1 8 51 102 255
1 -2 8 51 102 255
1 -3 8 51 102 255
0 1 8 51 102 255
0 0 8 51 102 255
0 -1 8 51 102 255
0 -2 8 51 102 255
-1 1 8 255 102 255
-1 0 8 255 102 255
-1 -1 8 255 102 255
-1 -2 8 255 102 255
-2 0 8 255 102 255
-2 -1 8 255 102 255
2 0 9 255 204 204
1 2 9 255 102 255
1 1 9 51 102 255
1 0 9 51 102 255
0 1 3 0 0 34
1 1 0 0 0 34
3 -3 11 255 204 153
3 -3 9 255 204 153
3 -3 8 255 204 153
4 -3 9 255 204 153
4 -3 8 255 204 153
3 -4 9 255 204 153
4 -4 8 255 204 153
2 -4 9 255 204 153
3 2 8 255 204 153
4 2 9 255 204 153
4 2 8 255 204 153
4 3 8 255 204 153
3 3 8 255 204 153
2 3 8 255 204 153
2 3 9 255 204 153
3 3 10 255 204 153
3 3 9 255 204 153
2 4 10 204 153 153
2 4 9 255 204 153
1 4 9 255 204 153
2 -5 10 255 204 153
1 -4 10 255 204 153
2 -5 9 255 204 153
3 0 8 255 204 204
-1 -5 8 255 204 153
0 -5 8 255 204 153
0 0 14 221 0 0
0 -1 14 221 0 0
1 -1 14 221 0 0
1 0 14 221 0 0
0 -1 15 221 0 0
1 -1 15 221 0 0
0 -2 15 221 0 0
1 -2 15 221 0 0
1 -1 16 221 0 0
2 -1 15 221 0 0
2 -2 15 221 0 0
2 -1 16 221 0 0
2 0 15 221 0 0
1 0 15 221 0 0
2 -1 17 221 0 0
0 1 17 221 0 0
0 0 15 221 0 0
1 1 15 221 0 0
-1 0 15 221 0 0
0 1 15 221 0 0
-1 -1 15 221 0 0
0 0 16 221 0 0
0 -1 16 221 0 0
1 0 16 221 0 0
1 -1 18 221 0 0
-1 1 16 221 0 0
2 0 16 221 0 0
1 -2 16 221 0 0
2 -2 16 221 0 0
1 0 18 221 0 0
3 -1 8 255 204 204
0 -2 16 221 0 0
2 -2 17 221 0 0
0 0 18 221 0 0
-1 -2 16 221 0 0
-1 -1 16 221 0 0
-1 0 16 221 0 0
1 1 16 221 0 0
3 -1 16 221 0 0
3 0 16 221 0 0
2 1 16 221 0 0
1 -2 19 0 119 0
1 0 17 221 0 0
2 1 17 221 0 0
2 0 17 221 0 0
1 1 17 221 0 0
0 -1 17 221 0 0
0 0 17 221 0 0
1 -2 17 221 0 0
0 -2 17 221 0 0
1 -1 17 221 0 0
0 -1 18 221 0 0
0 1 16 221 0 0
1 2 4 0 0 85
1 2 5 0 0 34
2 -2 0 0 0 34
2 -4 10 255 204 153
