ply
format ascii 1.0
comment : MagicaVoxel @ Ephtracy
element vertex 38
property float x
property float y
property float z
property uchar red
property uchar green
property uchar blue
end_header
0 -1 0 204 153 0
-1 -1 5 85 85 85
-1 -1 -1 204 153 0
-1 -1 3 85 85 85
-1 -1 4 85 85 85
-2 -1 0 204 153 0
-1 -1 0 204 153 0
-1 -1 1 204 153 0
-1 -1 2 85 85 85
-4 -1 0 68 68 68
0 -1 6 85 85 85
-2 -2 0 204 153 0
-1 -2 -1 204 153 0
-1 -2 1 204 153 0
-1 -2 0 204 153 0
0 -2 0 204 153 0
0 0 0 204 153 0
-1 0 1 204 153 0
-1 0 0 204 153 0
-2 0 0 204 153 0
-1 0 -1 204 153 0
-1 -2 5 68 68 68
-1 0 5 68 68 68
-2 -1 1 68 68 68
-3 -1 0 68 68 68
-4 -1 1 68 68 68
-5 -1 0 68 68 68
-1 -1 6 85 85 85
-1 -1 7 85 85 85
-1 -1 8 85 85 85
-1 -1 9 85 85 85
-1 -1 10 85 85 85
-2 -1 5 119 119 119
-2 -1 6 119 119 119
-2 -1 7 119 119 119
-2 -1 8 119 119 119
-2 -1 9 119 119 119
-2 -1 10 119 119 119
