ply
format ascii 1.0
comment : MagicaVoxel @ Ephtracy
element vertex 834
property float x
property float y
property float z
property uchar red
property uchar green
property uchar blue
end_header
-5 -5 0 187 187 187
-4 -5 0 187 187 187
-3 -5 0 187 187 187
-2 -5 0 187 187 187
-1 -5 0 187 187 187
0 -5 0 187 187 187
1 -5 0 187 187 187
2 -5 0 187 187 187
3 -5 0 187 187 187
4 -5 0 187 187 187
-5 -4 0 187 187 187
-4 -4 0 187 187 187
-3 -4 0 187 187 187
-2 -4 0 187 187 187
-1 -4 0 187 187 187
0 -4 0 187 187 187
1 -4 0 187 187 187
2 -4 0 187 187 187
3 -4 0 187 187 187
4 -4 0 187 187 187
-5 -3 0 187 187 187
-4 -3 0 187 187 187
-3 -3 0 187 187 187
-2 -3 0 187 187 187
-1 -3 0 187 187 187
0 -3 0 187 187 187
1 -3 0 187 187 187
2 -3 0 187 187 187
3 -3 0 187 187 187
4 -3 0 187 187 187
-5 -2 0 187 187 187
-4 -2 0 187 187 187
-3 -2 0 187 187 187
-2 -2 0 187 187 187
-1 -2 0 187 187 187
0 -2 0 187 187 187
1 -2 0 187 187 187
2 -2 0 187 187 187
3 -2 0 187 187 187
4 -2 0 187 187 187
-5 -1 0 187 187 187
-4 -1 0 187 187 187
-3 -1 0 187 187 187
-2 -1 0 187 187 187
-1 -1 0 187 187 187
0 -1 0 187 187 187
1 -1 0 187 187 187
2 -1 0 187 187 187
3 -1 0 187 187 187
4 -1 0 187 187 187
-5 0 0 187 187 187
-4 0 0 187 187 187
-3 0 0 187 187 187
-2 0 0 187 187 187
-1 0 0 187 187 187
0 0 0 187 187 187
1 0 0 187 187 187
2 0 0 187 187 187
3 0 0 187 187 187
4 0 0 187 187 187
-5 1 0 187 187 187
-4 1 0 187 187 187
-3 1 0 187 187 187
-2 1 0 187 187 187
-1 1 0 187 187 187
0 1 0 187 187 187
1 1 0 187 187 187
2 1 0 187 187 187
3 1 0 187 187 187
4 1 0 187 187 187
-5 2 0 187 187 187
-4 2 0 187 187 187
-3 2 0 187 187 187
-2 2 0 187 187 187
-1 2 0 187 187 187
0 2 0 187 187 187
1 2 0 187 187 187
2 2 0 187 187 187
3 2 0 187 187 187
4 2 0 187 187 187
-5 3 0 187 187 187
-4 3 0 187 187 187
-3 3 0 187 187 187
-2 3 0 187 187 187
-1 3 0 187 187 187
0 3 0 187 187 187
1 3 0 187 187 187
2 3 0 187 187 187
3 3 0 187 187 187
4 3 0 187 187 187
-5 4 0 187 187 187
-4 4 0 187 187 187
-3 4 0 187 187 187
-2 4 0 187 187 187
-1 4 0 187 187 187
0 4 0 187 187 187
1 4 0 187 187 187
2 4 0 187 187 187
3 4 0 187 187 187
4 4 0 187 187 187
-5 -5 1 187 187 187
-4 -5 1 68 68 68
-3 -5 1 68 68 68
-2 -5 1 68 68 68
-1 -5 1 68 68 68
0 -5 1 68 68 68
1 -5 1 68 68 68
2 -5 1 68 68 68
3 -5 1 68 68 68
4 -5 1 187 187 187
-5 -4 1 68 68 68
-4 -4 1 187 187 187
-3 -4 1 187 187 187
-2 -4 1 187 187 187
-1 -4 1 187 187 187
0 -4 1 187 187 187
1 -4 1 187 187 187
2 -4 1 187 187 187
3 -4 1 187 187 187
4 -4 1 85 85 85
-5 -3 1 68 68 68
-4 -3 1 187 187 187
-3 -3 1 187 187 187
-2 -3 1 187 187 187
-1 -3 1 187 187 187
0 -3 1 187 187 187
1 -3 1 187 187 187
2 -3 1 187 187 187
3 -3 1 187 187 187
4 -3 1 85 85 85
-5 -2 1 68 68 68
-4 -2 1 187 187 187
-3 -2 1 187 187 187
-2 -2 1 187 187 187
-1 -2 1 187 187 187
0 -2 1 187 187 187
1 -2 1 187 187 187
2 -2 1 187 187 187
3 -2 1 187 187 187
4 -2 1 187 187 187
-5 -1 1 68 68 68
-4 -1 1 187 187 187
-3 -1 1 187 187 187
-2 -1 1 187 187 187
-1 -1 1 187 187 187
0 -1 1 187 187 187
1 -1 1 187 187 187
2 -1 1 187 187 187
3 -1 1 187 187 187
4 -1 1 187 187 187
-5 0 1 85 85 85
-4 0 1 187 187 187
-3 0 1 187 187 187
-2 0 1 187 187 187
-1 0 1 187 187 187
0 0 1 187 187 187
1 0 1 187 187 187
2 0 1 187 187 187
3 0 1 187 187 187
4 0 1 187 187 187
-5 1 1 85 85 85
-4 1 1 187 187 187
-3 1 1 187 187 187
-2 1 1 187 187 187
-1 1 1 187 187 187
0 1 1 187 187 187
1 1 1 187 187 187
2 1 1 187 187 187
3 1 1 187 187 187
4 1 1 68 68 68
-5 2 1 187 187 187
-4 2 1 187 187 187
-3 2 1 187 187 187
-2 2 1 187 187 187
-1 2 1 187 187 187
0 2 1 187 187 187
1 2 1 187 187 187
2 2 1 187 187 187
3 2 1 187 187 187
4 2 1 68 68 68
-5 3 1 187 187 187
-4 3 1 187 187 187
-3 3 1 187 187 187
-2 3 1 187 187 187
-1 3 1 187 187 187
0 3 1 187 187 187
1 3 1 187 187 187
2 3 1 187 187 187
3 3 1 187 187 187
4 3 1 68 68 68
-5 4 1 187 187 187
-4 4 1 68 68 68
-3 4 1 68 68 68
-2 4 1 68 68 68
-1 4 1 68 68 68
0 4 1 68 68 68
1 4 1 68 68 68
2 4 1 68 68 68
3 4 1 187 187 187
4 4 1 187 187 187
-5 -5 2 187 187 187
-4 -5 2 119 119 119
-3 -5 2 119 119 119
-2 -5 2 119 119 119
-1 -5 2 68 68 68
0 -5 2 68 68 68
1 -5 2 68 68 68
2 -5 2 68 68 68
3 -5 2 68 68 68
4 -5 2 187 187 187
-5 -4 2 68 68 68
-4 -4 2 187 187 187
-3 -4 2 187 187 187
-2 -4 2 187 187 187
-1 -4 2 187 187 187
0 -4 2 187 187 187
1 -4 2 187 187 187
2 -4 2 187 187 187
3 -4 2 187 187 187
4 -4 2 68 68 68
-5 -3 2 68 68 68
-4 -3 2 187 187 187
-3 -3 2 187 187 187
-2 -3 2 187 187 187
-1 -3 2 187 187 187
0 -3 2 187 187 187
1 -3 2 187 187 187
2 -3 2 187 187 187
3 -3 2 187 187 187
4 -3 2 85 85 85
-5 -2 2 68 68 68
-4 -2 2 187 187 187
-3 -2 2 187 187 187
-2 -2 2 187 187 187
-1 -2 2 187 187 187
0 -2 2 187 187 187
1 -2 2 187 187 187
2 -2 2 187 187 187
3 -2 2 187 187 187
4 -2 2 85 85 85
-5 -1 2 68 68 68
-4 -1 2 187 187 187
-3 -1 2 187 187 187
-2 -1 2 187 187 187
-1 -1 2 187 187 187
0 -1 2 187 187 187
1 -1 2 187 187 187
2 -1 2 187 187 187
3 -1 2 187 187 187
4 -1 2 85 85 85
-5 0 2 85 85 85
-4 0 2 187 187 187
-3 0 2 187 187 187
-2 0 2 187 187 187
-1 0 2 187 187 187
0 0 2 187 187 187
1 0 2 187 187 187
2 0 2 187 187 187
3 0 2 187 187 187
4 0 2 119 119 119
-5 1 2 85 85 85
-4 1 2 187 187 187
-3 1 2 187 187 187
-2 1 2 187 187 187
-1 1 2 187 187 187
0 1 2 187 187 187
1 1 2 187 187 187
2 1 2 187 187 187
3 1 2 187 187 187
4 1 2 119 119 119
-5 2 2 85 85 85
-4 2 2 187 187 187
-3 2 2 187 187 187
-2 2 2 187 187 187
-1 2 2 187 187 187
0 2 2 187 187 187
1 2 2 187 187 187
2 2 2 187 187 187
3 2 2 187 187 187
4 2 2 68 68 68
-5 3 2 187 187 187
-4 3 2 187 187 187
-3 3 2 187 187 187
-2 3 2 187 187 187
-1 3 2 187 187 187
0 3 2 187 187 187
1 3 2 187 187 187
2 3 2 187 187 187
3 3 2 187 187 187
4 3 2 85 85 85
-5 4 2 187 187 187
-4 4 2 68 68 68
-3 4 2 68 68 68
-2 4 2 68 68 68
-1 4 2 68 68 68
0 4 2 68 68 68
1 4 2 68 68 68
2 4 2 68 68 68
3 4 2 187 187 187
4 4 2 187 187 187
-5 -5 3 85 85 85
-4 -5 3 85 85 85
-3 -5 3 85 85 85
-2 -5 3 187 187 187
-1 -5 3 187 187 187
0 -5 3 187 187 187
1 -5 3 187 187 187
2 -5 3 187 187 187
3 -5 3 187 187 187
4 -5 3 187 187 187
-5 -4 3 68 68 68
-4 -4 3 187 187 187
-3 -4 3 187 187 187
-2 -4 3 187 187 187
-1 -4 3 187 187 187
0 -4 3 187 187 187
1 -4 3 187 187 187
2 -4 3 187 187 187
3 -4 3 187 187 187
4 -4 3 187 187 187
-5 -3 3 68 68 68
-4 -3 3 187 187 187
-3 -3 3 187 187 187
-2 -3 3 187 187 187
-1 -3 3 187 187 187
0 -3 3 187 187 187
1 -3 3 187 187 187
2 -3 3 187 187 187
3 -3 3 187 187 187
4 -3 3 85 85 85
-5 -2 3 68 68 68
-4 -2 3 187 187 187
-3 -2 3 187 187 187
-2 -2 3 187 187 187
-1 -2 3 187 187 187
0 -2 3 187 187 187
1 -2 3 187 187 187
2 -2 3 187 187 187
3 -2 3 187 187 187
4 -2 3 85 85 85
-5 -1 3 85 85 85
-4 -1 3 187 187 187
-3 -1 3 187 187 187
-2 -1 3 187 187 187
-1 -1 3 187 187 187
0 -1 3 187 187 187
1 -1 3 187 187 187
2 -1 3 187 187 187
3 -1 3 187 187 187
4 -1 3 119 119 119
-5 0 3 85 85 85
-4 0 3 187 187 187
-3 0 3 187 187 187
-2 0 3 187 187 187
-1 0 3 187 187 187
0 0 3 187 187 187
1 0 3 187 187 187
2 0 3 187 187 187
3 0 3 187 187 187
4 0 3 119 119 119
-5 1 3 85 85 85
-4 1 3 187 187 187
-3 1 3 187 187 187
-2 1 3 187 187 187
-1 1 3 187 187 187
0 1 3 187 187 187
1 1 3 187 187 187
2 1 3 187 187 187
3 1 3 187 187 187
4 1 3 119 119 119
-5 2 3 85 85 85
-4 2 3 187 187 187
-3 2 3 187 187 187
-2 2 3 187 187 187
-1 2 3 187 187 187
0 2 3 187 187 187
1 2 3 187 187 187
2 2 3 187 187 187
3 2 3 187 187 187
4 2 3 85 85 85
-5 3 3 85 85 85
-4 3 3 187 187 187
-3 3 3 187 187 187
-2 3 3 187 187 187
-1 3 3 187 187 187
0 3 3 187 187 187
1 3 3 187 187 187
2 3 3 187 187 187
3 3 3 187 187 187
4 3 3 85 85 85
-5 4 3 68 68 68
-4 4 3 187 187 187
-3 4 3 187 187 187
-2 4 3 187 187 187
-1 4 3 187 187 187
0 4 3 68 68 68
1 4 3 68 68 68
2 4 3 68 68 68
3 4 3 68 68 68
4 4 3 68 68 68
-5 -5 4 187 187 187
-4 -5 4 68 68 68
-3 -5 4 119 119 119
-2 -5 4 119 119 119
-1 -5 4 85 85 85
0 -5 4 85 85 85
1 -5 4 68 68 68
2 -5 4 68 68 68
3 -5 4 68 68 68
4 -5 4 187 187 187
-5 -4 4 85 85 85
-4 -4 4 187 187 187
-3 -4 4 187 187 187
-2 -4 4 187 187 187
-1 -4 4 187 187 187
0 -4 4 187 187 187
1 -4 4 187 187 187
2 -4 4 187 187 187
3 -4 4 187 187 187
4 -4 4 85 85 85
-5 -3 4 85 85 85
-4 -3 4 187 187 187
-3 -3 4 187 187 187
-2 -3 4 187 187 187
-1 -3 4 187 187 187
0 -3 4 187 187 187
1 -3 4 187 187 187
2 -3 4 187 187 187
3 -3 4 187 187 187
4 -3 4 85 85 85
-5 -2 4 187 187 187
-4 -2 4 187 187 187
-3 -2 4 187 187 187
-2 -2 4 187 187 187
-1 -2 4 187 187 187
0 -2 4 187 187 187
1 -2 4 187 187 187
2 -2 4 187 187 187
3 -2 4 187 187 187
4 -2 4 119 119 119
-5 -1 4 187 187 187
-4 -1 4 187 187 187
-3 -1 4 187 187 187
-2 -1 4 187 187 187
-1 -1 4 187 187 187
0 -1 4 187 187 187
1 -1 4 187 187 187
2 -1 4 187 187 187
3 -1 4 187 187 187
4 -1 4 119 119 119
-5 0 4 187 187 187
-4 0 4 187 187 187
-3 0 4 187 187 187
-2 0 4 187 187 187
-1 0 4 187 187 187
0 0 4 187 187 187
1 0 4 187 187 187
2 0 4 187 187 187
3 0 4 187 187 187
4 0 4 68 68 68
-5 1 4 68 68 68
-4 1 4 187 187 187
-3 1 4 187 187 187
-2 1 4 187 187 187
-1 1 4 187 187 187
0 1 4 187 187 187
1 1 4 187 187 187
2 1 4 187 187 187
3 1 4 187 187 187
4 1 4 68 68 68
-5 2 4 68 68 68
-4 2 4 187 187 187
-3 2 4 187 187 187
-2 2 4 187 187 187
-1 2 4 187 187 187
0 2 4 187 187 187
1 2 4 187 187 187
2 2 4 187 187 187
3 2 4 187 187 187
4 2 4 85 85 85
-5 3 4 68 68 68
-4 3 4 187 187 187
-3 3 4 187 187 187
-2 3 4 187 187 187
-1 3 4 187 187 187
0 3 4 187 187 187
1 3 4 187 187 187
2 3 4 187 187 187
3 3 4 187 187 187
4 3 4 85 85 85
-5 4 4 68 68 68
-4 4 4 68 68 68
-3 4 4 68 68 68
-2 4 4 68 68 68
-1 4 4 68 68 68
0 4 4 85 85 85
1 4 4 85 85 85
2 4 4 85 85 85
3 4 4 85 85 85
4 4 4 68 68 68
-5 -5 5 187 187 187
-4 -5 5 68 68 68
-3 -5 5 119 119 119
-2 -5 5 119 119 119
-1 -5 5 85 85 85
0 -5 5 85 85 85
1 -5 5 119 119 119
2 -5 5 119 119 119
3 -5 5 119 119 119
4 -5 5 187 187 187
-5 -4 5 85 85 85
-4 -4 5 187 187 187
-3 -4 5 187 187 187
-2 -4 5 187 187 187
-1 -4 5 187 187 187
0 -4 5 187 187 187
1 -4 5 187 187 187
2 -4 5 187 187 187
3 -4 5 187 187 187
4 -4 5 187 187 187
-5 -3 5 85 85 85
-4 -3 5 187 187 187
-3 -3 5 187 187 187
-2 -3 5 187 187 187
-1 -3 5 187 187 187
0 -3 5 187 187 187
1 -3 5 187 187 187
2 -3 5 187 187 187
3 -3 5 187 187 187
4 -3 5 85 85 85
-5 -2 5 85 85 85
-4 -2 5 187 187 187
-3 -2 5 187 187 187
-2 -2 5 187 187 187
-1 -2 5 187 187 187
0 -2 5 187 187 187
1 -2 5 187 187 187
2 -2 5 187 187 187
3 -2 5 187 187 187
4 -2 5 119 119 119
-5 -1 5 68 68 68
-4 -1 5 187 187 187
-3 -1 5 187 187 187
-2 -1 5 187 187 187
-1 -1 5 187 187 187
0 -1 5 187 187 187
1 -1 5 187 187 187
2 -1 5 187 187 187
3 -1 5 187 187 187
4 -1 5 119 119 119
-5 0 5 68 68 68
-4 0 5 187 187 187
-3 0 5 187 187 187
-2 0 5 187 187 187
-1 0 5 187 187 187
0 0 5 187 187 187
1 0 5 187 187 187
2 0 5 187 187 187
3 0 5 187 187 187
4 0 5 119 119 119
-5 1 5 68 68 68
-4 1 5 187 187 187
-3 1 5 187 187 187
-2 1 5 187 187 187
-1 1 5 187 187 187
0 1 5 187 187 187
1 1 5 187 187 187
2 1 5 187 187 187
3 1 5 187 187 187
4 1 5 119 119 119
-5 2 5 68 68 68
-4 2 5 187 187 187
-3 2 5 187 187 187
-2 2 5 187 187 187
-1 2 5 187 187 187
0 2 5 187 187 187
1 2 5 187 187 187
2 2 5 187 187 187
3 2 5 187 187 187
4 2 5 119 119 119
-5 3 5 187 187 187
-4 3 5 187 187 187
-3 3 5 187 187 187
-2 3 5 187 187 187
-1 3 5 187 187 187
0 3 5 187 187 187
1 3 5 187 187 187
2 3 5 187 187 187
3 3 5 187 187 187
4 3 5 85 85 85
-5 4 5 187 187 187
-4 4 5 68 68 68
-3 4 5 68 68 68
-2 4 5 68 68 68
-1 4 5 85 85 85
0 4 5 85 85 85
1 4 5 85 85 85
2 4 5 85 85 85
3 4 5 68 68 68
4 4 5 68 68 68
-5 -5 6 85 85 85
-4 -5 6 85 85 85
-3 -5 6 68 68 68
-2 -5 6 85 85 85
-1 -5 6 85 85 85
0 -5 6 85 85 85
1 -5 6 119 119 119
2 -5 6 119 119 119
3 -5 6 119 119 119
4 -5 6 68 68 68
-5 -4 6 187 187 187
-4 -4 6 187 187 187
-3 -4 6 187 187 187
-2 -4 6 187 187 187
-1 -4 6 187 187 187
0 -4 6 187 187 187
1 -4 6 187 187 187
2 -4 6 187 187 187
3 -4 6 187 187 187
4 -4 6 68 68 68
-5 -3 6 68 68 68
-4 -3 6 187 187 187
-3 -3 6 187 187 187
-2 -3 6 187 187 187
-1 -3 6 187 187 187
0 -3 6 187 187 187
1 -3 6 187 187 187
2 -3 6 187 187 187
3 -3 6 187 187 187
4 -3 6 85 85 85
-5 -2 6 68 68 68
-4 -2 6 187 187 187
-3 -2 6 187 187 187
-2 -2 6 187 187 187
-1 -2 6 187 187 187
0 -2 6 187 187 187
1 -2 6 187 187 187
2 -2 6 187 187 187
3 -2 6 187 187 187
4 -2 6 85 85 85
-5 -1 6 68 68 68
-4 -1 6 187 187 187
-3 -1 6 187 187 187
-2 -1 6 187 187 187
-1 -1 6 187 187 187
0 -1 6 187 187 187
1 -1 6 187 187 187
2 -1 6 187 187 187
3 -1 6 187 187 187
4 -1 6 68 68 68
-5 0 6 68 68 68
-4 0 6 187 187 187
-3 0 6 187 187 187
-2 0 6 187 187 187
-1 0 6 187 187 187
0 0 6 187 187 187
1 0 6 187 187 187
2 0 6 187 187 187
3 0 6 187 187 187
4 0 6 68 68 68
-5 1 6 68 68 68
-4 1 6 187 187 187
-3 1 6 187 187 187
-2 1 6 187 187 187
-1 1 6 187 187 187
0 1 6 187 187 187
1 1 6 187 187 187
2 1 6 187 187 187
3 1 6 187 187 187
4 1 6 85 85 85
-5 2 6 85 85 85
-4 2 6 187 187 187
-3 2 6 187 187 187
-2 2 6 187 187 187
-1 2 6 187 187 187
0 2 6 187 187 187
1 2 6 187 187 187
2 2 6 187 187 187
3 2 6 187 187 187
4 2 6 85 85 85
-5 3 6 85 85 85
-4 3 6 187 187 187
-3 3 6 187 187 187
-2 3 6 187 187 187
-1 3 6 187 187 187
0 3 6 187 187 187
1 3 6 187 187 187
2 3 6 187 187 187
3 3 6 187 187 187
4 3 6 187 187 187
-5 4 6 187 187 187
-4 4 6 187 187 187
-3 4 6 187 187 187
-2 4 6 187 187 187
-1 4 6 187 187 187
0 4 6 85 85 85
1 4 6 85 85 85
2 4 6 68 68 68
3 4 6 68 68 68
4 4 6 68 68 68
-5 -5 7 85 85 85
4 4 8 187 187 187
4 2 8 187 187 187
-2 -5 7 187 187 187
-1 -5 7 187 187 187
0 -5 7 187 187 187
1 -5 7 187 187 187
2 -5 7 187 187 187
3 -5 7 187 187 187
4 -5 7 187 187 187
-5 -4 7 187 187 187
-4 -4 7 187 187 187
-3 -4 7 187 187 187
-2 -4 7 187 187 187
-1 -4 7 187 187 187
0 -4 7 187 187 187
1 -4 7 187 187 187
2 -4 7 187 187 187
3 -4 7 187 187 187
4 -4 7 187 187 187
-5 -3 7 187 187 187
-4 -3 7 187 187 187
-3 -3 7 187 187 187
-2 -3 7 187 187 187
-1 -3 7 187 187 187
0 -3 7 187 187 187
1 -3 7 187 187 187
2 -3 7 187 187 187
3 -3 7 187 187 187
4 -3 7 187 187 187
-5 -2 7 187 187 187
-4 -2 7 187 187 187
-3 -2 7 187 187 187
-2 -2 7 187 187 187
-1 -2 7 187 187 187
0 -2 7 187 187 187
1 -2 7 187 187 187
2 -2 7 187 187 187
3 -2 7 187 187 187
4 -2 7 187 187 187
-5 -1 7 187 187 187
-4 -1 7 187 187 187
2 -1 8 187 187 187
4 3 8 187 187 187
-1 4 8 187 187 187
0 -1 7 187 187 187
1 -1 7 187 187 187
2 -1 7 187 187 187
3 -1 7 187 187 187
4 -1 7 187 187 187
-5 0 7 187 187 187
-4 0 7 187 187 187
-1 -1 7 187 187 187
-4 1 8 187 187 187
-2 4 8 187 187 187
0 0 7 187 187 187
1 0 7 187 187 187
2 0 7 187 187 187
3 0 7 187 187 187
4 0 7 187 187 187
-5 1 7 187 187 187
-4 1 7 187 187 187
2 -2 8 187 187 187
2 1 8 187 187 187
-1 3 8 187 187 187
0 1 7 187 187 187
1 1 7 187 187 187
2 1 7 187 187 187
3 1 7 187 187 187
4 1 7 187 187 187
-5 2 7 85 85 85
-4 2 7 187 187 187
-3 2 7 187 187 187
-2 2 7 187 187 187
-1 2 7 187 187 187
0 2 7 187 187 187
1 2 7 187 187 187
2 2 7 187 187 187
3 2 7 187 187 187
4 2 7 85 85 85
-5 3 7 85 85 85
-4 3 7 187 187 187
-3 3 7 187 187 187
-2 3 7 187 187 187
-1 3 7 187 187 187
0 3 7 187 187 187
1 3 7 187 187 187
2 3 7 187 187 187
3 3 7 187 187 187
4 3 7 85 85 85
-5 4 7 187 187 187
-4 4 7 187 187 187
-3 4 7 187 187 187
-2 4 7 187 187 187
-1 4 7 187 187 187
0 4 7 187 187 187
1 4 7 187 187 187
2 4 7 187 187 187
3 4 7 187 187 187
4 4 7 187 187 187
-5 -5 8 187 187 187
3 3 8 187 187 187
-3 1 7 187 187 187
-4 -5 8 187 187 187
-3 -1 7 187 187 187
-1 1 7 187 187 187
-2 1 7 187 187 187
2 -5 8 187 187 187
-2 -1 7 187 187 187
4 -5 8 187 187 187
-5 -4 8 187 187 187
-3 -5 7 187 187 187
-2 3 8 187 187 187
-2 -4 8 187 187 187
-1 -4 8 187 187 187
-1 2 8 187 187 187
-2 2 8 187 187 187
-1 -1 8 187 187 187
-1 -2 8 187 187 187
4 -4 8 187 187 187
-2 0 7 187 187 187
-4 -5 7 85 85 85
-1 0 7 187 187 187
-2 -3 8 187 187 187
-1 -3 8 187 187 187
-5 3 8 187 187 187
-5 4 8 187 187 187
-2 -1 8 187 187 187
-2 -2 8 187 187 187
4 -3 8 187 187 187
-3 0 7 187 187 187
-5 2 8 187 187 187
4 1 8 187 187 187
-4 -4 8 187 187 187
