ply
format ascii 1.0
comment : MagicaVoxel @ Ephtracy
element vertex 30
property float x
property float y
property float z
property uchar red
property uchar green
property uchar blue
end_header
6 -1 0 153 102 0
6 -3 0 153 102 0
1 2 0 153 102 0
3 -4 0 153 102 0
6 -2 0 153 102 0
4 -4 0 153 102 0
1 1 0 153 102 0
5 1 0 153 102 0
3 2 0 153 102 0
4 1 0 153 102 0
4 2 0 153 102 0
4 -3 0 153 102 0
5 -3 0 153 102 0
2 2 0 153 102 0
6 1 0 153 102 0
6 0 0 153 102 0
0 1 0 153 102 0
2 -4 0 153 102 0
1 -4 0 153 102 0
1 -3 0 153 102 0
0 -3 0 153 102 0
0 0 0 153 102 0
0 -2 0 153 102 0
0 -1 0 153 102 0
-1 -1 0 153 102 0
-2 -1 0 153 102 0
-3 -1 0 153 102 0
0 -1 1 153 102 0
0 0 1 153 102 0
-1 0 1 153 102 0
